PathFileType	4	(X/Y/Z)	C:\Users\°ÂÌØÂü\Desktop\20210112\bx_n_0_502-Unnamed.trc
DataRate	CameraRate	NumFrames	NumMarkers	Units	OrigDataRate	OrigDataStartFrame	OrigNumFrames
50.00	50.00	       4	0	mm	50.00	1	       376
Frame#	Time	
		

1	0.000	-589.59741	238.04070	1061.90039	-673.77722	281.85812	872.31476	-575.15497	-3.21283	799.39398	-580.61047	213.25758	790.30060	-681.05518	268.02240	742.22748	-716.50085	251.73956	641.85938	-716.91034	245.31905	575.37457	-661.23438	18.37595	517.17914	-670.20825	196.37248	533.26013	-754.70184	259.17526	501.10120	-723.74200	71.65813	215.49294	-641.67590	-59.17925	163.24429	-760.62122	223.80380	205.46490	-599.83197	-61.33321	160.19188	-882.56708	296.11902	144.63147	-676.83295	58.85009	156.53087	-600.40472	38.36750	166.14046	-546.44971	-13.71971	164.68576	-517.71454	-72.76344	143.12502	-588.86938	184.10222	174.16844	-640.70490	274.15207	160.01624	-602.28180	274.61771	159.38306	-546.47589	213.86229	165.35986	-528.24188	304.07635	146.21542	-649.33258	116.12690	1853.05298	-704.25983	282.91611	1531.60205	-575.34247	103.81493	1355.06555	-795.74329	179.78757	184.41692	-673.01202	-78.67392	1541.57373	-794.08093	34.13108	175.29393	-785.78448	89.33208	1063.42798	-746.27710	-51.31307	487.73694	-754.55609	-21.10557	207.21094	-875.98901	-79.10474	141.06335	-647.79620	-74.95349	870.05817	-668.18945	-65.44725	753.68237	-694.74658	-37.00460	612.40009	-702.63043	-34.84010	566.31549	-718.68652	142.27617	217.63991	-678.64752	153.69788	157.79218	-579.43677	-8.15523	1050.64087	
2	0.020	-589.61237	238.01848	1061.76477	-673.76025	281.99780	872.19775	-575.21161	-3.10327	799.27850	-580.63031	213.32367	790.22162	-681.05518	268.02240	742.22748	-716.64691	251.61067	641.77557	-716.58826	245.12198	575.11920	-661.15643	18.49456	517.32855	-670.07947	196.38670	533.19897	-754.75281	259.03827	500.91248	-723.66968	72.22694	215.47789	-641.50098	-58.97819	163.32719	-760.51678	223.82024	205.35263	-599.74182	-61.36863	160.08525	-882.54053	295.94876	144.50409	-676.94415	58.81778	156.61627	-600.34766	38.47073	166.17650	-546.56824	-13.64157	164.83249	-517.69672	-72.81759	143.20711	-588.91351	184.21153	174.10806	-640.79498	274.13797	159.82077	-602.30511	274.54471	159.71143	-546.47589	213.86229	165.35986	-528.24139	304.00241	146.24747	-649.00543	116.30054	1853.08972	-704.04846	282.98697	1531.68250	-575.29059	103.83418	1355.01392	-795.59418	180.03568	184.72568	-672.91119	-78.65604	1541.44690	-794.35663	34.35901	175.15195	-785.72321	89.40040	1063.44910	-746.13391	-51.22057	487.83206	-754.72174	-20.82996	207.33054	-876.12219	-78.89765	141.41621	-647.82227	-74.84335	869.99713	-668.29395	-65.34976	753.83466	-694.74658	-37.00460	612.40009	-702.64972	-35.01997	566.34979	-718.79938	142.33012	217.51958	-678.72656	153.51408	158.07280	-579.08112	-8.15032	1050.85742	
3	0.040	-589.60614	238.24702	1062.07532	-673.69110	282.12411	872.19958	-575.35345	-3.00670	799.16644	-580.54730	213.20049	790.22198	-681.14233	268.23712	742.35150	-716.44171	251.65143	641.75891	-716.88373	245.17020	575.37628	-661.34070	18.51600	517.08856	-670.10760	196.45238	533.33112	-754.69519	259.13562	500.77835	-723.63348	71.92919	215.66338	-641.63586	-59.01237	163.45326	-760.62122	223.80380	205.46490	-599.57532	-61.54152	160.68378	-882.52582	296.01248	144.52502	-676.83295	58.85009	156.53087	-600.36493	38.37949	166.09782	-546.58887	-13.52804	164.74268	-517.74756	-72.82542	142.97836	-588.91351	184.21153	174.10806	-640.66949	274.16708	159.83086	-602.41113	274.63330	159.56593	-546.52917	213.77647	165.36104	-528.11072	303.84088	146.27448	-648.81274	116.42547	1853.06494	-704.05365	282.99698	1531.65295	-575.34900	103.77945	1355.15942	-795.51996	179.97598	184.71254	-672.91010	-78.47972	1541.47583	-794.35663	34.35901	175.15195	-785.59692	89.48083	1063.37976	-746.21912	-51.25059	487.98462	-754.53632	-20.94709	207.41687	-876.12219	-78.89765	141.41621	-647.79620	-74.95349	870.05817	-668.03772	-65.18454	753.94885	-694.49774	-37.07301	612.47015	-702.63043	-34.84010	566.31549	-718.84991	142.40387	217.66876	-678.37842	153.98785	157.72543	-579.15680	-8.20993	1050.96118	
4	0.060	-589.66614	238.08643	1061.70508	-673.64362	281.90936	871.96490	-575.13245	-3.08398	799.22809	-580.63031	213.32367	790.22162	-681.12384	268.00745	742.04559	-716.37286	251.68344	641.69635	-716.78760	245.43582	575.43579	-661.26270	18.63460	517.23798	-669.96350	196.34503	533.02472	-754.89740	259.37433	500.79599	-723.74200	71.65813	215.49294	-641.39130	-58.84265	164.13084	-760.51678	223.82024	205.35263	-599.64240	-61.42886	160.33257	-882.86536	296.12729	144.58412	-676.83295	58.85009	156.53087	-600.33960	38.38306	166.21124	-546.51233	-13.54177	164.73924	-517.73657	-72.68130	143.04131	-588.91876	184.31192	174.23404	-640.69128	274.08063	159.63278	-602.26666	274.45801	159.54382	-546.47589	213.86229	165.35986	-528.24188	304.07635	146.21542	-648.49762	116.60062	1853.04248	-703.91461	283.10187	1531.75952	-575.26141	103.80085	1354.95325	-795.33734	179.62709	184.37469	-672.72852	-78.30651	1541.52966	-794.31873	34.29606	175.22798	-785.77722	89.47404	1063.53149	-746.13635	-51.20304	487.85117	-754.95795	-20.91674	207.14491	-876.31458	-78.92422	141.43286	-647.81378	-75.05475	870.21600	-668.06995	-65.32300	753.75751	-694.49774	-37.07301	612.47015	-702.55457	-34.86641	566.40472	-718.97791	142.46855	217.53416	-678.84479	153.84439	157.75845	-579.15863	-8.08958	1050.80896	
